<svg width="28" height="29" viewBox="0 0 28 29" fill="none" xmlns="http://www.w3.org/2000/svg">
<path d="M6.28455 11.6527C7.39747 8.28036 10.5667 5.85837 14.3205 5.85837C16.3384 5.85837 18.161 6.57439 19.593 7.74606L23.759 3.58011C21.2203 1.36695 17.9657 0 14.3205 0C8.67591 0 3.81612 3.22007 1.47979 7.93595L6.28455 11.6527Z" fill="#EA4335"/>
<path d="M19.1427 21.4954C17.8421 22.3352 16.1895 22.7823 14.3206 22.7823C10.5811 22.7823 7.42183 20.3788 6.29751 17.0266L1.47687 20.6868C3.8103 25.4109 8.66996 28.6406 14.3206 28.6406C17.8205 28.6406 21.165 27.3964 23.6697 25.06L19.1427 21.4954Z" fill="#34A853"/>
<path d="M23.6696 25.0601C26.289 22.6167 27.99 18.9788 27.99 14.3202C27.99 13.474 27.8598 12.5627 27.6645 11.7165H14.3205V17.2494H22.0014C21.6224 19.11 20.6051 20.5511 19.1426 21.4955L23.6696 25.0601Z" fill="#4A90E2"/>
<path d="M6.2974 17.0271C6.01259 16.178 5.85837 15.2679 5.85837 14.3207C5.85837 13.3878 6.00795 12.491 6.28453 11.6529L1.47977 7.93619C0.521011 9.858 0 12.0239 0 14.3207C0 16.6114 0.530789 18.7722 1.47675 20.6873L6.2974 17.0271Z" fill="#FBBC05"/>
</svg>
